PathFileType	4	(X/Y/Z)	SUBJ24_3_walk_RCNL2025.trc
DataRate	CameraRate	NumFrames	NumMarkers	Units	OrigDataRate	OrigDataStartFrame	OrigNumFrames
100	100	13	25	mm	100	102	406
Frame#	Time	R_Shoulder			L_Shoulder			C7			J_Notch			R_Elbow			L_Elbow			R_Wrist			L_Wrist			R_Asis			L_Asis			Sacral			Thoracic			Sternum			R_Thigh_Lateral			R_Knee_Lateral			R_Shank_Lateral			R_Ankle_Lateral			R_Heel			R_Toe			L_Thigh_Lateral			L_Knee_Lateral			L_Shank_Lateral			L_Ankle_Lateral			L_Heel			L_Toe		
		X1	Y1	Z1	X2	Y2	Z2	X3	Y3	Z3	X4	Y4	Z4	X5	Y5	Z5	X6	Y6	Z6	X7	Y7	Z7	X8	Y8	Z8	X9	Y9	Z9	X10	Y10	Z10	X11	Y11	Z11	X12	Y12	Z12	X13	Y13	Z13	X14	Y14	Z14	X15	Y15	Z15	X16	Y16	Z16	X17	Y17	Z17	X18	Y18	Z18	X19	Y19	Z19	X20	Y20	Z20	X21	Y21	Z21	X22	Y22	Z22	X23	Y23	Z23	X24	Y24	Z24	X25	Y25	Z25
102	1.01000000	-2063.955322	1304.031616	382.707855	-2090.474365	1322.256958	38.023830	-2164.826660	1373.236084	216.926331	-2027.579590	1286.962891	206.119720	-2079.348633	1016.547791	468.756439	-2121.515625	1031.667114	-54.809376	-2004.209839	792.800995	446.535599	-2026.691345	814.945557	-55.180622	-2042.115845	875.419617	370.447601	-2061.166260	860.343994	45.445488	-2225.512939	914.796387	222.669495	-2226.161377	1105.466064	209.688507	-1952.120239	1069.812378	195.907227	-2081.049805	555.188232	399.139160	-2017.493530	430.446686	308.725342	-2028.318115	284.094299	352.894867	-2051.925781	54.962036	271.669800	-2096.926270	30.030985	210.671814	-1926.390503	32.803391	269.276245	-2068.720703	552.406006	8.959150	-2036.142822	429.876862	52.206516	-2158.561279	346.509552	11.252484	-2327.233887	198.956955	84.363846	-2364.083740	209.203796	151.709290	-2270.821533	85.247490	87.412109
103	1.02000000	-2052.125000	1306.015381	383.584290	-2080.377930	1323.526001	38.936325	-2153.608154	1374.935059	218.156555	-2016.514893	1288.488525	206.992523	-2064.464600	1018.704285	470.359619	-2114.761963	1033.023682	-52.997463	-1985.080811	796.551697	446.372818	-2025.859985	813.912537	-53.987599	-2032.274536	876.091187	371.726166	-2050.864502	862.496521	45.838345	-2214.778809	916.426147	223.877548	-2215.233887	1107.171265	211.917297	-1941.482422	1071.255371	196.493484	-2075.391602	556.265564	399.973816	-2015.119385	430.285431	309.320221	-2027.472534	284.012451	353.306793	-2051.983154	54.958401	271.739380	-2096.965332	30.139505	210.803223	-1926.433716	32.705124	269.405823	-2049.657227	555.684082	9.498882	-2013.717407	434.001038	52.532303	-2134.334229	348.599701	11.979819	-2299.397705	196.611557	85.335365	-2337.137695	206.059982	152.316391	-2239.439209	85.165047	89.465805
104	1.03000000	-2040.420898	1307.886475	384.466400	-2070.368164	1324.631592	39.864964	-2142.468750	1376.432129	219.386932	-2005.529419	1289.865967	207.892883	-2049.732178	1020.763245	471.937073	-2108.184326	1034.259888	-51.185936	-1966.015076	800.351776	446.091904	-2025.044739	813.007477	-52.773011	-2022.448364	876.644897	372.948059	-2040.451416	864.501099	46.296547	-2204.079102	917.858032	224.861938	-2204.361572	1108.671021	214.122635	-1930.878418	1072.588623	197.095383	-2070.384766	557.042908	400.448547	-2012.781372	430.110291	309.806152	-2026.818115	284.010193	353.681549	-2052.037109	54.971367	271.794067	-2097.003174	30.270048	210.926208	-1926.473389	32.598404	269.544891	-2030.807129	558.979309	10.119833	-1991.699707	438.066010	53.031757	-2109.840088	349.635956	12.643415	-2270.828857	192.893845	86.290016	-2309.610352	201.482574	152.778595	-2206.880859	84.156052	91.934586
105	1.04000000	-2028.837646	1309.604736	385.354889	-2060.416504	1325.548706	40.803680	-2131.395752	1377.707520	220.614426	-1994.610229	1291.071411	208.817627	-2035.155029	1022.678711	473.492920	-2101.770264	1035.359863	-49.378986	-1947.042053	804.165100	445.703201	-2024.205017	812.197205	-51.534280	-2012.619019	877.079224	374.109161	-2029.821411	866.354187	46.851265	-2193.412109	919.081116	225.614502	-2193.531250	1109.948486	216.275726	-1920.281860	1073.783325	197.729340	-2065.925781	557.571167	400.600555	-2010.413086	429.926849	310.197968	-2026.229858	284.065125	354.016296	-2052.083984	55.001934	271.832245	-2097.043213	30.420506	211.036011	-1926.512695	32.488472	269.701843	-2012.188232	562.251587	10.810881	-1970.123779	441.985352	53.706257	-2085.136719	349.581512	13.285755	-2241.577637	187.946091	87.281151	-2281.445557	195.502121	153.235046	-2173.286621	82.370003	94.576904
106	1.05000000	-2017.364014	1311.129639	386.244965	-2050.495605	1326.255371	41.743279	-2120.375244	1378.751221	221.831497	-1983.737549	1292.084106	209.749268	-2020.726929	1024.409058	475.028076	-2095.493652	1036.311523	-47.580017	-1928.184814	807.951904	445.218658	-2023.300049	811.452148	-50.270264	-2002.786133	877.390930	375.208374	-2018.848389	868.065125	47.514919	-2182.776123	920.092041	226.144791	-2182.726318	1110.994995	218.346497	-1909.668823	1074.809204	198.402435	-2061.802490	557.949524	400.516449	-2007.963745	429.743530	310.519897	-2025.564575	284.146393	354.307556	-2052.116699	55.055984	271.855835	-2097.080811	30.586695	211.123657	-1926.554199	32.383293	269.885315	-1993.815552	565.458496	11.562509	-1949.033813	445.692841	54.554008	-2060.308594	348.492340	13.963649	-2211.670898	181.909058	88.341476	-2252.578857	188.180435	153.787323	-2138.777832	79.947845	97.193161
107	1.06000000	-2005.985352	1312.424683	387.128418	-2040.579102	1326.736328	42.673996	-2109.393555	1379.560303	223.028091	-1972.889648	1292.889404	210.661987	-2006.436279	1025.923950	476.539490	-2089.319092	1037.109009	-45.792637	-1909.460022	811.672150	444.654068	-2022.291077	810.745483	-48.980561	-1992.954834	877.576538	376.243958	-2007.431885	869.643188	48.292198	-2172.166260	920.891052	226.476852	-2171.939697	1111.813354	220.308334	-1899.023560	1075.642212	199.115005	-2057.754883	558.296509	400.308075	-2005.400879	429.566376	310.798553	-2024.703735	284.224762	354.555237	-2052.123779	55.146091	271.867706	-2097.106934	30.765396	211.179840	-1926.594360	32.289742	270.097076	-1975.711548	568.550049	12.372776	-1928.491577	449.143066	55.573399	-2035.465332	346.507111	14.733435	-2181.115723	174.921738	89.479729	-2222.950439	179.616425	154.489227	-2103.460449	77.016937	99.646492
108	1.07000000	-1994.684570	1313.462158	387.996613	-2030.644897	1326.986328	43.587490	-2098.438232	1380.137573	224.194229	-1962.049683	1293.480347	211.534592	-1992.270630	1027.205933	478.020172	-2083.209473	1037.752319	-44.021564	-1890.881409	815.290466	444.027573	-2021.141418	810.050598	-47.665764	-1983.134888	877.626770	377.215607	-1995.563232	871.081360	49.186661	-2161.575928	921.478821	226.643372	-2161.174805	1112.417358	222.141403	-1888.341675	1076.265625	199.863297	-2053.541992	558.715454	400.083740	-2002.708252	429.397125	311.057892	-2023.587402	284.283417	354.764709	-2052.091797	55.289120	271.869629	-2097.114014	30.957851	211.201233	-1926.623291	32.209370	270.326691	-1957.911865	571.468079	13.250487	-1908.575317	452.304230	56.763504	-2010.737549	343.818054	15.636072	-2149.910156	167.126709	90.681168	-2192.516113	169.947830	155.345383	-2067.429932	73.696579	101.867279
109	1.08000000	-1983.442749	1314.224731	388.842743	-2020.674927	1327.008789	44.477890	-2087.497314	1380.489136	225.321671	-1951.208740	1293.854614	212.359024	-1978.218018	1028.248901	479.458832	-2077.125977	1038.245605	-42.271023	-1872.463562	818.779572	443.357010	-2019.815918	809.345062	-46.327830	-1973.340088	877.526489	378.127533	-1983.349365	872.351624	50.194401	-2150.994385	921.854858	226.680008	-2150.442871	1112.824463	223.832794	-1877.627808	1076.664307	200.640579	-2048.994629	559.264404	399.925201	-1999.879272	429.233154	311.314606	-2022.221436	284.322968	354.945770	-2052.019531	55.494858	271.860809	-2097.096436	31.170176	211.192047	-1926.628662	32.138332	270.555573	-1940.464966	574.148315	14.213290	-1889.370361	455.146454	58.121590	-1986.265625	340.633759	16.689804	-2118.051025	158.675400	91.912552	-2161.245361	159.352783	156.321213	-2030.774048	70.106094	103.844269
110	1.09000000	-1972.242432	1314.705688	389.661499	-2010.656372	1326.814819	45.340977	-2076.560791	1380.623779	226.404617	-1940.363647	1294.010254	213.138092	-1964.266724	1029.053467	480.840729	-2071.029541	1038.594604	-40.542423	-1854.223450	822.119690	442.657715	-2018.283142	808.617615	-44.970671	-1963.576294	877.263977	378.985748	-1970.965942	873.414062	51.295273	-2140.408447	922.017822	226.621552	-2139.752930	1113.048096	225.374084	-1866.890137	1076.827881	201.436996	-2044.035645	559.940613	399.874481	-1996.907471	429.067383	311.574707	-2020.654541	284.357208	355.108948	-2051.923096	55.757900	271.837585	-2097.050293	31.411215	211.159988	-1926.600708	32.069492	270.764038	-1923.432983	576.522888	15.279329	-1870.958374	457.632629	59.639580	-1962.181519	337.141693	17.891949	-2085.540283	149.730865	93.131996	-2129.117920	148.047531	157.363907	-1993.574951	66.371712	105.606537
111	1.10000000	-1961.069580	1314.907227	390.446747	-2000.579956	1326.422363	46.172665	-2065.620117	1380.551758	227.439178	-1929.512817	1293.944702	213.878677	-1950.404541	1029.624390	482.149048	-2064.884033	1038.806519	-38.834538	-1836.178528	825.294525	441.940750	-2016.513672	807.870178	-43.601225	-1953.828369	876.839783	379.791870	-1958.580933	874.225586	52.453053	-2129.804199	921.966370	226.498795	-2129.105225	1113.095825	226.758545	-1856.133545	1076.758545	202.243225	-2038.674072	560.687439	399.931458	-1993.775146	428.891327	311.834564	-2018.940552	284.402618	355.261810	-2051.820801	56.065285	271.794556	-2096.972412	31.690285	211.110596	-1926.534546	31.993614	270.936249	-1906.891724	578.525635	16.457615	-1853.408325	459.715668	61.303371	-1938.591431	333.482086	19.225256	-2052.388184	140.469193	94.300659	-2096.128906	136.274017	158.424164	-1955.910156	62.635090	107.200363
112	1.11000000	-1949.914917	1314.839844	391.191040	-1990.436768	1325.853638	46.968586	-2054.668945	1380.283081	228.421570	-1918.653931	1293.658081	214.586060	-1936.619019	1029.968994	483.367188	-2058.660645	1038.890991	-37.146385	-1818.344666	828.288055	441.212601	-2014.476318	807.113373	-42.229355	-1944.063110	876.265381	380.541901	-1946.301514	874.745117	53.621506	-2119.168213	921.700073	226.336182	-2118.492188	1112.972656	227.981796	-1845.356323	1076.471313	203.055710	-2032.976929	561.420044	400.064362	-1990.451050	428.701813	312.086121	-2017.106079	284.468414	355.406677	-2051.719727	56.407658	271.726501	-2096.861572	32.016129	211.044510	-1926.431763	31.903332	271.067413	-1890.928955	580.094360	17.744894	-1836.769165	461.341187	63.096470	-1915.567749	329.740692	20.665272	-2018.620850	131.080078	95.391785	-2062.292725	124.282501	159.468216	-1917.856445	59.062958	108.668724
113	1.12000000	-1938.774414	1314.519165	391.887726	-1980.215454	1325.131714	47.724724	-2043.703125	1379.827271	229.346588	-1907.782715	1293.155518	215.260757	-1922.899902	1030.096680	484.481354	-2052.338867	1038.858398	-35.479904	-1800.735840	831.083099	440.476425	-2012.138367	806.359344	-40.866020	-1934.241211	875.557129	381.230621	-1934.166870	874.940552	54.751583	-2108.488525	921.219299	226.151062	-2107.904053	1112.683472	229.043625	-1834.553101	1075.981567	203.875809	-2027.030273	562.058899	400.229065	-1986.895874	428.502228	312.320862	-2015.140991	284.553040	355.539795	-2051.616699	56.782345	271.630981	-2096.718994	32.396866	210.959015	-1926.301636	31.798744	271.167877	-1875.637695	581.169373	19.130995	-1821.066284	462.454315	65.004166	-1893.145996	325.957123	22.187994	-1984.283691	121.765472	96.397530	-2027.648682	112.320129	160.479721	-1879.496704	55.846424	110.038704
114	1.13000000	-1927.648315	1313.964722	392.532776	-1969.903809	1324.276001	48.437366	-2032.720947	1379.193237	230.207520	-1896.892822	1292.445435	215.898666	-1909.243164	1030.019043	485.482971	-2045.902222	1038.718506	-33.839733	-1783.366577	833.662292	439.733856	-2009.475525	805.616364	-39.521831	-1924.325806	874.732117	381.855225	-1922.171265	874.796082	55.798069	-2097.753906	920.524963	225.955017	-2097.329590	1112.229858	229.948746	-1823.720825	1075.297241	204.704132	-2020.901245	562.555359	400.387787	-1983.068481	428.294830	312.528931	-2013.008179	284.646942	355.654358	-2051.503174	57.191647	271.508911	-2096.546875	32.839920	210.851257	-1926.154907	31.686577	271.255188	-1861.108032	581.691101	20.605671	-1806.302979	463.008484	67.014839	-1871.328369	322.142242	23.776529	-1949.443970	112.732834	97.335472	-1992.264038	100.627083	161.459000	-1840.927979	53.185360	111.315338
